<?xml version="1.0" encoding="UTF-8"?>
<svg width="663px" height="237px" viewBox="0 0 663 237" version="1.1" xmlns="http://www.w3.org/2000/svg" xmlns:xlink="http://www.w3.org/1999/xlink">
    <!-- Generator: Sketch 46.2 (44496) - http://www.bohemiancoding.com/sketch -->
    <title>lg-dineroExpress</title>
    <desc>Created with Sketch.</desc>
    <defs></defs>
    <g id="Page-1" stroke="none" stroke-width="1" fill="none" fill-rule="evenodd">
        <g id="lg-dineroExpress">
            <polygon id="Fill-1" fill="#37B34A" points="177.7554 0.0122 95.0174 0.0122 31.9784 118.2102 59.5574 118.2152 0.4594 236.4072 154.1154 82.7502 118.6564 82.7502"></polygon>
            <g id="Group-28" transform="translate(130.000000, 0.000000)" fill="#265E4C">
                <path d="M218.9453,148.2861 C207.4493,148.2861 196.1753,158.7861 193.1343,170.9901 C190.9793,179.6461 195.1003,185.8901 204.3273,185.8901 C216.3923,185.8901 226.5673,175.8151 229.6753,163.3281 C231.7603,154.9551 228.3123,148.2861 218.9453,148.2861 L218.9453,148.2861 Z M165.3453,236.4071 L142.6353,236.4071 L187.1703,131.6831 L208.7453,131.6831 L204.6023,141.4741 L205.0283,141.4741 C212.0823,134.2371 221.6593,129.9791 231.0293,129.9791 C249.6233,129.9791 257.4753,142.8921 253.1293,160.3481 C247.0863,184.6131 225.7083,204.3371 202.9983,204.3371 C192.6363,204.3371 185.8563,200.2221 183.6823,193.5521 L183.3993,193.5521 L165.3453,236.4071 Z" id="Fill-4"></path>
                <path d="M293.2832,140.6689 C299.5922,133.5739 307.1092,128.4679 315.9082,128.4679 C317.6112,128.4679 319.5282,128.7509 320.5952,129.0339 L311.8862,149.1849 C310.0392,148.6159 308.0862,148.4759 306.3832,148.4759 C293.1822,148.4759 286.0612,158.8329 283.6212,164.6509 L268.1812,200.9789 L245.4712,200.9789 L269.5122,144.9269 C271.1062,141.3809 273.7262,134.8529 275.2822,130.3119 L296.8542,130.3119 C296.2552,132.1569 294.0942,137.9739 293.0012,140.6689 L293.2832,140.6689 Z" id="Fill-6"></path>
                <path d="M369.8018,155.0029 C371.3578,148.7589 367.8408,144.0749 359.6068,144.0749 C349.5308,144.0749 341.1988,151.8819 338.2958,157.8399 L368.9548,157.8399 C369.3418,156.8479 369.5908,155.8539 369.8018,155.0029 L369.8018,155.0029 Z M333.2708,171.7459 C332.9878,172.3149 332.8808,172.7409 332.8118,173.0239 C330.8298,180.9709 337.4698,185.6529 345.2768,185.6529 C352.3738,185.6529 358.6158,182.8149 364.0048,178.2749 L375.5488,189.4839 C364.2398,198.9919 351.7168,203.1069 338.9428,203.1069 C319.3538,203.1069 306.9618,191.8979 312.0848,171.3199 C318.0948,147.1979 340.5728,128.1829 365.4128,128.1829 C384.0068,128.1829 393.9868,138.8249 389.2128,157.9829 C388.3658,161.3889 386.2088,167.2059 383.9418,171.7459 L333.2708,171.7459 Z" id="Fill-8"></path>
                <path d="M400.3682,178.417 C402.6092,183.668 408.4312,186.505 414.6782,186.505 C420.7802,186.505 425.3552,184.094 426.3452,180.119 C427.3012,176.287 424.3172,174.585 418.1392,172.599 C406.0742,168.626 400.1762,163.8 402.9342,152.733 C406.7852,137.265 423.9532,128.183 440.9862,128.183 C451.9142,128.183 461.2142,131.872 465.0882,139.11 L447.7492,151.171 C445.9722,147.481 441.9942,144.644 435.6082,144.644 C430.6402,144.644 425.3872,146.347 424.2572,150.887 C423.4442,154.151 426.0722,155.57 431.8922,157.274 C444.2092,160.82 451.0282,166.497 448.0242,178.559 C443.7472,195.729 425.7642,203.532 409.8652,203.532 C396.8072,203.532 387.4742,198.851 382.9592,191.33 L400.3682,178.417 Z" id="Fill-10"></path>
                <path d="M467.6445,178.417 C469.8855,183.668 475.7075,186.505 481.9545,186.505 C488.0565,186.505 492.6325,184.094 493.6225,180.119 C494.5775,176.287 491.5935,174.585 485.4155,172.599 C473.3505,168.626 467.4535,163.8 470.2105,152.733 C474.0615,137.265 491.2305,128.183 508.2625,128.183 C519.1905,128.183 528.4905,131.872 532.3655,139.11 L515.0255,151.171 C513.2485,147.481 509.2705,144.644 502.8845,144.644 C497.9165,144.644 492.6635,146.347 491.5345,150.887 C490.7205,154.151 493.3485,155.57 499.1685,157.274 C511.4865,160.82 518.3055,166.497 515.3005,178.559 C511.0235,195.729 493.0405,203.532 477.1415,203.532 C464.0845,203.532 454.7505,198.851 450.2355,191.33 L467.6445,178.417 Z" id="Fill-12"></path>
                <path d="M75.7949,75.3442 L90.0899,75.3442 C112.2709,75.3442 127.7489,59.3162 131.9429,42.4862 C135.1699,29.5312 129.8159,18.8452 111.9139,18.8452 L99.7549,18.8452 L75.7949,75.3442 Z M86.0079,0.0122 L121.0119,0.0122 C142.2539,0.0122 162.8409,11.2312 155.7229,39.8162 C147.4359,73.0732 117.4969,94.5792 84.3649,94.5792 L45.7529,94.5792 L86.0079,0.0122 Z" id="Fill-14"></path>
                <path d="M144.8486,94.5796 L173.0376,28.0616 L194.5486,28.0616 L166.0906,94.5796 L144.8486,94.5796 Z M186.9106,20.1567 C181.1836,20.1567 177.9206,16.2647 179.2316,11.0007 C180.7696,4.8207 186.7766,0.0117 192.8426,0.0117 C198.4536,0.0117 201.5766,4.0187 200.2926,9.1687 C198.8116,15.1217 193.0936,20.1567 186.9106,20.1567 Z" id="Fill-16"></path>
                <path d="M225.9717,37.6782 C231.8777,31.1332 240.4207,26.3252 249.6417,26.3252 C264.4687,26.3252 268.5537,35.6742 265.8607,46.4942 C265.2607,48.8982 264.4957,51.4352 263.3957,53.7062 L246.0017,94.5792 L224.6227,94.5792 L239.8857,58.5142 C240.7507,56.6442 241.5527,54.5072 241.9487,52.9052 C243.1807,47.9632 241.9097,43.9552 235.3637,43.9552 C227.6147,43.9552 221.0077,50.6342 217.7067,58.5142 L202.3147,94.5792 L180.9357,94.5792 L203.2977,41.8192 C204.7937,38.4802 207.2627,32.3362 208.7297,28.0622 L229.1687,28.0622 C228.4987,30.1982 226.6687,34.8732 225.7027,37.6782 L225.9717,37.6782 Z" id="Fill-18"></path>
                <path d="M323.7021,51.3037 C325.1661,45.4247 321.8561,41.0177 314.1051,41.0177 C304.6211,41.0177 296.7771,48.3647 294.0471,53.9737 L322.9051,53.9737 C323.2691,53.0387 323.5041,52.1037 323.7021,51.3037 L323.7021,51.3037 Z M289.3161,67.0637 C289.0481,67.5977 288.9501,67.9987 288.8821,68.2647 C287.0181,75.7447 293.2711,80.1527 300.6191,80.1527 C307.2981,80.1527 313.1741,77.4817 318.2461,73.2077 L329.1111,83.7597 C318.4661,92.7087 306.6811,96.5827 294.6551,96.5827 C276.2201,96.5827 264.5501,86.0307 269.3751,66.6627 C275.0311,43.9557 296.1901,26.0577 319.5681,26.0577 C337.0701,26.0577 346.4671,36.0747 341.9741,54.1077 C341.1781,57.3127 339.1431,62.7887 337.0121,67.0637 L289.3161,67.0637 Z" id="Fill-20"></path>
                <path d="M380.1406,37.8115 C386.0796,31.1335 393.1546,26.3255 401.4366,26.3255 C403.0396,26.3255 404.8436,26.5915 405.8456,26.8595 L397.6496,45.8255 C395.9116,45.2915 394.0736,45.1585 392.4696,45.1585 C380.0446,45.1585 373.3396,54.9075 371.0416,60.3845 L356.5126,94.5795 L335.1386,94.5795 L357.7646,41.8195 C359.2646,38.4795 361.7296,32.3355 363.1956,28.0615 L383.5036,28.0615 C382.9366,29.7975 380.9086,35.2725 379.8706,37.8115 L380.1406,37.8115 Z" id="Fill-22"></path>
                <path d="M439.9883,43.5547 C428.6323,43.5547 418.8253,53.4397 415.9633,64.9267 C413.9663,72.9417 417.5783,78.8177 426.3973,78.8177 C437.8863,78.8177 447.6643,69.0667 450.5243,57.5807 C452.5213,49.5657 448.8083,43.5547 439.9883,43.5547 M394.4203,67.1977 C399.9103,45.1587 420.1643,26.0577 445.2833,26.0577 C464.9223,26.0577 476.6913,37.2777 472.2013,55.3087 C466.6453,77.6167 446.4573,96.4497 420.9363,96.4497 C401.6993,96.4497 389.9293,85.2287 394.4203,67.1977" id="Fill-24"></path>
                <polygon id="Fill-3" points="125.2495 200.9785 119.5855 179.2675 94.8735 200.9785 67.4785 200.9785 112.4755 163.9425 101.9735 130.3115 126.8105 130.3115 131.7985 149.6105 153.4955 130.3115 180.0365 130.3115 139.0515 164.3695 150.3715 200.9785"></polygon>
                <polygon id="Fill-2" points="0.4766 200.9521 43.2426 100.4861 107.5396 100.4861 98.9746 120.6361 57.2446 120.6361 48.9946 140.0771 88.7376 140.0771 80.5936 159.0921 40.8506 159.0921 31.7896 180.6621 77.4956 180.6621 68.8896 200.9521"></polygon>
            </g>
        </g>
    </g>
</svg>